<svg xmlns="http://www.w3.org/2000/svg" style="display:none;">
    <symbol id="icon-plus" viewBox="0 0 24 24"><path d="M12 2v20M2 12h20" /></symbol>
    <symbol id="icon-trash" viewBox="0 0 24 24"><path d="M3 6h18M7 6v16h10V6M10 1h4l1 5H9L10 1z" /></symbol>
    <symbol id="icon-reload" viewBox="0 0 24 24"><path d="M12 5v2a7 7 0 1 1-7 7h2a5 5 0 1 0 5-5H6l3-3 3 3z" /></symbol>
    <symbol id="icon-search" viewBox="0 0 24 24"><path d="M21 21l-4.35-4.35M10 3a7 7 0 1 0 7 7 7 7 0 0 0-7-7zM10 7h6v2H10z" /></symbol>
</svg>
